<svg xmlns="http://www.w3.org/2000/svg" xmlns:xlink="http://www.w3.org/1999/xlink" viewBox="0 0 1228.36 1269.53"><defs><pattern id="_6_lpi_10_" data-name=" 6 lpi 10 " width="72" height="72" patternTransform="matrix(0.06, -0.06, -0.06, -0.06, -4841.11, 4617.47)" patternUnits="userSpaceOnUse" viewBox="0 0 72 72"><rect width="72" height="72" style="fill:none"/><rect width="72" height="72" style="fill:none"/><line x1="71.75" y1="6" x2="144.25" y2="6" style="fill:none;stroke:#2c2f7b;stroke-width:1.2000000476837158px"/><line x1="71.75" y1="30" x2="144.25" y2="30" style="fill:none;stroke:#2c2f7b;stroke-width:1.2000000476837158px"/><line x1="71.75" y1="54" x2="144.25" y2="54" style="fill:none;stroke:#2c2f7b;stroke-width:1.2000000476837158px"/><line x1="71.75" y1="18" x2="144.25" y2="18" style="fill:none;stroke:#2c2f7b;stroke-width:1.2000000476837158px"/><line x1="71.75" y1="42" x2="144.25" y2="42" style="fill:none;stroke:#2c2f7b;stroke-width:1.2000000476837158px"/><line x1="71.75" y1="66" x2="144.25" y2="66" style="fill:none;stroke:#2c2f7b;stroke-width:1.2000000476837158px"/><line x1="-0.25" y1="6" x2="72.25" y2="6" style="fill:none;stroke:#2c2f7b;stroke-width:1.2000000476837158px"/><line x1="-0.25" y1="30" x2="72.25" y2="30" style="fill:none;stroke:#2c2f7b;stroke-width:1.2000000476837158px"/><line x1="-0.25" y1="54" x2="72.25" y2="54" style="fill:none;stroke:#2c2f7b;stroke-width:1.2000000476837158px"/><line x1="-0.25" y1="18" x2="72.25" y2="18" style="fill:none;stroke:#2c2f7b;stroke-width:1.2000000476837158px"/><line x1="-0.25" y1="42" x2="72.25" y2="42" style="fill:none;stroke:#2c2f7b;stroke-width:1.2000000476837158px"/><line x1="-0.25" y1="66" x2="72.25" y2="66" style="fill:none;stroke:#2c2f7b;stroke-width:1.2000000476837158px"/><line x1="-72.25" y1="6" x2="0.25" y2="6" style="fill:none;stroke:#2c2f7b;stroke-width:1.2000000476837158px"/><line x1="-72.25" y1="30" x2="0.25" y2="30" style="fill:none;stroke:#2c2f7b;stroke-width:1.2000000476837158px"/><line x1="-72.25" y1="54" x2="0.25" y2="54" style="fill:none;stroke:#2c2f7b;stroke-width:1.2000000476837158px"/><line x1="-72.25" y1="18" x2="0.25" y2="18" style="fill:none;stroke:#2c2f7b;stroke-width:1.2000000476837158px"/><line x1="-72.25" y1="42" x2="0.25" y2="42" style="fill:none;stroke:#2c2f7b;stroke-width:1.2000000476837158px"/><line x1="-72.25" y1="66" x2="0.25" y2="66" style="fill:none;stroke:#2c2f7b;stroke-width:1.2000000476837158px"/></pattern></defs><g id="Layer_2" data-name="Layer 2"><g id="Main"><path d="M915.11,509.72c2.59.88,7.27-19.69-20.1-30.26a3,3,0,0,1-1.12-.68c-6.19-6.32-42.34,27.93-44.47,11.87C847.79,456,798,364.82,833,344.84a3.74,3.74,0,0,0,.34-6.22l-12.53-9.48a3.69,3.69,0,0,0-5.21.76c-9.17,12.44-43.76,57-58.84,38.73l-.2-.22c-16.19-16.15-90.36-68.21-86.26-98.06a3.69,3.69,0,0,0-3.66-4.2H567.84a3.71,3.71,0,0,0-3.7,3.88l2.19,48.54a3.7,3.7,0,0,1-1.83,3.37c-15.56,9-117.34,18.48-130.9,19.7a3.71,3.71,0,0,0-2.47,1.27c-5.81,6.73-35.76,41.11-40.7,40.2-5.47-1-23.59,12.44-24,26.16C366.05,422,344.21,442.82,333,446a3.7,3.7,0,0,0-2.66,3.38c-2.9,51.67,96.81,188.31-1.79,186.36a3.64,3.64,0,0,0-1.68.36c-5,2.49.76,8.19,2.08,9.39a3.14,3.14,0,0,0,.51.39c55,35.07.59,52.59,43.84,68.56,25.8,9.84,16.36,41.54,26.91,45.75a4.16,4.16,0,0,1,1.32.91c41.58,41.2,3.48,34.23-26.46,54.65a3.7,3.7,0,0,0-1.58,2.68c-2,19.49,16.77,53.64,23.49,78.33a3.35,3.35,0,0,1,.11.55c1.21,10.57.11,80.73,33,43.15a3.39,3.39,0,0,1,.55-.52c27.47-21,47.79,3.56,70.71,19.79,42.08,30.42,71.22,9.77,71.29,65.85a3.71,3.71,0,0,0,6.2,2.77c28.72-26.26,35.24-85.73,71.43-12.53,4.1,3.58-2.17,60.44,16.64,41.59a3.79,3.79,0,0,0,1.06-2c17-94.92,8.48-57.27,104.78-57.57a3.72,3.72,0,0,0,3.21-5.58c-72.85-125.07,1-38.94,110.73-123.83a3.72,3.72,0,0,0,.77-5.08C879.37,852,850,810.62,844,802a3.67,3.67,0,0,1-.49-3.32c11.3-33.13,54.93-238,136.06-203.71a3.7,3.7,0,0,0,5.1-4C980.28,566.8,962.59,490.74,915.11,509.72Zm-171,58.81c-4.39-.37-6.83,63.28-1.55,81.67a3.48,3.48,0,0,0,.42.92c10.12,16.32-18.12,41.87-1.44,77.74l.1.2c8.5,15.79,2.48,24-.75,27a3.73,3.73,0,0,0-1.06,3.6c5.44,23.64-22.53,22.91-14.59,52.2,6.68,18.56-52.24,5.06-70,37.24-12.24,22.6-35.65,19.41-38.75,18.88a3.9,3.9,0,0,1-.67-.18c-2-.75-12.43-5-13.13-14.37a3.76,3.76,0,0,0-2.66-3.4c-22.25-6.44-59.25-20.69-81-16.49,0,0-7.77,2.42-9.91-8a3.29,3.29,0,0,1-.06-.94c.71-15.17-24.64-5-22.95-23.75,2.84-16.38-27.45-11.57-8.42-24,14-7.08-16-52.71-24.6-59.39a3.66,3.66,0,0,1-1.31-3.87c2-7.27,7.71-9-.4-13.54a3.71,3.71,0,0,1-1.05-5.6c8.26-10.21-10.34-9.65-6.35-29.2a3.71,3.71,0,0,1,.79-1.6c7.31-8.89,7.17-16.25,6.48-29.2a3.72,3.72,0,0,0-.08-.57c-.27-1.29-.87-7.33,10.34-10.45a3.74,3.74,0,0,0,1.85-1.19L486,595a3.62,3.62,0,0,1,1.19-.94c8.48-4-7.19-18.08-.42-28.22a3.85,3.85,0,0,1,2-1.43c12.11-4.06,3.28-46.36,16.85-44.76a3.7,3.7,0,0,0,4.09-2.85c.2-.89.42-1.85.64-2.84a3.71,3.71,0,0,1,6.43-1.61c4.61,5.52,11.31,10.15,13.18-6.14a3.49,3.49,0,0,1,.19-.85c6.21-17.25,15.11-.1,25.06-8.68a3.71,3.71,0,0,0,.66-.86c2.6-4.43,9.68.79,11.89,2.58a3.55,3.55,0,0,0,1.6.76c15.92,3.17,34-5.26,50,6.4a3.87,3.87,0,0,1,.52.47c11.39,12,36.37-19.86,55.36-.35l.19.2L688,520.46a3.66,3.66,0,0,1,.83,1.74c.57,2.89,2.81,10.87,9.31,2.2,5.89-7.84,10.5-8.18,12.41-7.87a3.33,3.33,0,0,1,1.53.66c1.9,1.44,7.83,6.9,6.36,18.45a3.7,3.7,0,0,0,1.42,3.42c9.75,7.38,49.52,18.33,26.8,29.25A4.85,4.85,0,0,1,744.13,568.53Z" style="fill:#a403f9;stroke:#fcfcfc;stroke-linecap:round;stroke-linejoin:round;stroke-width:3px"/></g><g id="Inner_Contrast" data-name="Inner Contrast"><path d="M1079.44,576.78c-3.76-33.31-18-110.63-37.9-110.39,12.38-81.29-64.07-47.41,3.78-109.33,8.48-46.85-43.57-41.23-50.71-75.31,1.42-35.93-3.9-41.07-10.34-42.66-21.63-8.35-8.41-63.07-35.69-60.73-80,24.13-26.54-36.88-111.47-36.34-3.06,0-34.73-30.45-69.09-39.47s-156.66,10.62-156.66,10.62a16.57,16.57,0,0,1-22.51-5.74c-29.35-49.85-50.24,11.15-77.61-8.06-43.16-42.49-34.18,21.09-63.93,21.35-22.35-3.29-17,33.44-37.75,33.78C329.68,185,358.16,79.89,286.1,188.35,168,211.4,274.74,249.52,222.46,274.16c0,0-35.91,13.31-56.46,26.78S122.05,346.31,118.5,369s-47.3,87.24-17.63,123.33a16.61,16.61,0,0,1-4.15,22.74c-60.14,47.16,22.2,63.77,20.28,98.42-9,35.29,12.76,44-25.75,63.53-12.57,7-10.75,25.7,2.92,30.24,16.18,5.37-9.68,18.49,15.86,49.29,44.55,21.75,48.35,13.48,27.11,65.56-22.37,45.35,68.85,24.41,70.53,61.28-.47,33.49,24.42,126.77,57.49,140.11,59.47,3.52,64.75,75.88,130.48,82,35.46-1.11,10.11,52.79,33.34,58.07,81-15,213.79,55.36,292.85,21.44,52.93-59.42,170.58-30.42,174.69-124.52,25.77-86.66,128.85,17.33,125-202.4C1058,734.29,1163.12,689.15,1079.44,576.78Zm-93,20.27c-81.13-34.33-124.76,170.58-136,203.71a3.64,3.64,0,0,0,.48,3.32l43.45,61.36a3.71,3.71,0,0,1-.77,5.09C783.85,955.42,710,869.28,782.81,994.36a3.71,3.71,0,0,1-3.21,5.57c-96.3.31-87.81-37.34-104.78,57.57a3.72,3.72,0,0,1-1.06,2c-18.81,18.85-12.54-38-16.64-41.6-36.19-73.2-42.71-13.72-71.43,12.54a3.71,3.71,0,0,1-6.2-2.77c-.07-56.08-29.21-35.43-71.29-65.86C485.29,945.59,465,921,437.49,942a3.39,3.39,0,0,0-.55.52c-32.88,37.58-31.79-32.58-33-43.15a3.69,3.69,0,0,0-.11-.56c-6.72-24.68-25.5-58.84-23.49-78.32a3.75,3.75,0,0,1,1.58-2.68c29.94-20.43,68.05-13.45,26.46-54.65a4.07,4.07,0,0,0-1.31-.91c-10.56-4.22-1.12-35.92-26.91-45.76-43.25-16,11.2-33.49-43.85-68.55a3.83,3.83,0,0,1-.51-.39c-1.32-1.21-7.1-6.9-2.07-9.4a3.58,3.58,0,0,1,1.68-.35c98.59,1.95-1.12-134.69,1.78-186.36a3.72,3.72,0,0,1,2.67-3.39c11.25-3.21,33.1-24,33.48-36.77.41-13.72,18.53-27.17,24-26.16,4.93.91,34.88-33.47,40.69-40.2a3.66,3.66,0,0,1,2.47-1.27C454.07,342.46,555.84,333,571.4,324a3.69,3.69,0,0,0,1.84-3.37L571,272.07a3.71,3.71,0,0,1,3.7-3.87h98.84a3.7,3.7,0,0,1,3.66,4.2c-4.09,29.86,70.07,81.92,86.27,98.07a2,2,0,0,1,.19.22C778.79,389,813.37,344.4,822.54,332a3.7,3.7,0,0,1,5.22-.75l12.52,9.48a3.75,3.75,0,0,1-.33,6.22c-35,20,14.75,111.16,16.38,145.81,2.12,16.06,38.28-18.19,44.46-11.87a3.21,3.21,0,0,0,1.12.68c24.86,9.6,23.28,27.44,20.85,30C969.67,493.59,987.2,569,991.53,593A3.7,3.7,0,0,1,986.43,597.05Z" style="fill:#ea1cab;stroke:#fff;stroke-miterlimit:10;stroke-width:5px"/></g><g id="Outer_Contrast" data-name="Outer Contrast"><path d="M1162.48,512.1c19-59.4-51.08-67.78-63.29-93.74,16.67-111.86-50.36-53.12-41.19-96.53,47.87-53.68-28.26-79.68-39.61-104.63,13.86-54-33.35-37.32-26.42-81.14,10.36-55.71-63.73-9.9-76.32-36.54C913.56,47,865.81,60.19,841.9,70.16a11,11,0,0,1-15-8.28C815.42-4.52,754,42.11,751,49.78c0,.28,0,.57,0,.86-.18-.17-.18-.46,0-.86-1.55-50.59-83.71-20.32-69.89,8C682,59.13,683,60.56,684,62a19.73,19.73,0,0,1-2.86-4.28C636.58-6.86,612,49.85,583.17,34.65c-29.61-56.36-54.6-5.55-79.9-13.89-50.93-45.87-42.6,16.33-68.85,21.94C411.17,36.19,411,66.64,395.24,73.07c-23.6,1.58-50.44,32.49-64.27.72-29.52-34.75-66.67,23.13-77.52,42-64,8-73.07,39.49-49,76.09,10.74,30.34-68.36,4.39-51.24,43.8,5.41,25.4-48.24,9.82-41.93,49.44C63.75,322,37.68,329,58.41,364.35c-27.15,59.23.76,55.73-5.39,99.51-68.78,53.45,19.7,73.62,22.56,106.26-8.78,15.24-3.53,33.07-3.53,33.07,2.09,52.14-140,54.87-19.57,80.76,4.45,16.23-22.75,46.88,2.06,50a37.94,37.94,0,0,1,7.7.15,42.21,42.21,0,0,1-7.7-.15c-14.22,1.14-28.68,9.79-25.3,24.15,2,13,22,16,23,31-1.37,21.14-32.52,64.25,4.09,69.95,14.72,13.4,29.09,42.28,45.08,43.53,21.25,24.37-33.48,62.78,23.47,65.87,93.14-10.07-11.25,72.62,93.62,81.48,23.5,29.49-19.55,86.67,51.51,74.35,7.08,1.24,27.94.17,31.79,7.79,23.63,54.42,85.79,41.88,88.47,71.87-21.64,42.57-1.72,58.16,29.32,54.1,9.86-.79,40.48,10,40.26-8.37-9.59-81.05,40.87-14.55,84.58-26.73a10.91,10.91,0,0,1,11.34,12.16c-3.53,74.76,87.59-26,113.3,25.62,72.73,29.91,60.62-92.74,120.24-9.67,7,1.57,8.68-13.79,9.8-20.13,6-24.55,28.38,21.68,63-27.25,117.51,13.88,32.44-39.83,89.73-32.64,34.86,6.47,22.27-20,28-35.46,8.32-19.89,24-3.72,27.07-.24,54.49,48.58,60-118.14,59.9-118.24,27.42,7.4,13.81-38.57,22.32-60.8,85.23-117.63-18.68-90.15,2.39-117.69,37.44-19.81,7.81-85.19,34.36-98.36,71.9,2.77,17.86-80.38,40.42-102.36C1293.56,603.66,1173.61,545.31,1162.48,512.1Zm-137,344c3.86,219.73-99.22,115.74-125,202.4-4.11,94.1-121.76,65.1-174.69,124.52-79.06,33.92-211.89-36.45-292.85-21.44-23.23-5.28,2.12-59.18-33.34-58.07-65.73-6.12-71-78.48-130.48-82-33.07-13.34-58-106.62-57.49-140.11-1.68-36.87-92.9-15.93-70.53-61.28C162.35,768,158.55,776.27,114,754.52c-25.54-30.8.32-43.92-15.86-49.29C84.47,700.69,82.65,682,95.22,675,133.73,655.48,112,646.75,121,611.46c1.92-34.65-80.42-51.26-20.28-98.42a16.61,16.61,0,0,0,4.15-22.74C75.17,454.21,118.93,389.66,122.47,367s26.94-54.58,47.5-68.05,56.46-26.78,56.46-26.78c52.28-24.64-54.51-62.76,63.64-85.81,72.06-108.46,43.58-3.34,123.46-33.85,20.76-.34,15.4-37.07,37.75-33.78,29.75-.26,20.77-63.84,63.93-21.35,27.37,19.21,48.26-41.79,77.61,8.06a16.57,16.57,0,0,0,22.51,5.74S737.61,91.51,772,100.53,838,140,841.08,140c84.93-.54,31.46,60.47,111.47,36.34,27.28-2.34,14.06,52.38,35.69,60.73,6.44,1.59,11.76,6.73,10.34,42.66,7.14,34.08,59.19,28.46,50.71,75.31-67.85,61.92,8.6,28-3.78,109.33,19.92-.24,34.14,77.08,37.9,110.39C1167.09,687.13,1061.92,732.27,1025.48,856.06Z" style="fill:#e2d5e1;stroke:#fff;stroke-miterlimit:10;stroke-width:8px"/></g><g id="Shadow"><path d="M674,61a19.73,19.73,0,0,1-2.86-4.28C672,58.13,673,59.56,674,61Z" style="fill:none;stroke:#29337d;stroke-linecap:round;stroke-linejoin:round;stroke-width:3px"/><path d="M741,49.64c-.18-.17-.18-.46,0-.86C741,49.06,741,49.35,741,49.64Z" style="fill:none;stroke:#29337d;stroke-linecap:round;stroke-linejoin:round;stroke-width:3px"/><line x1="566.52" y1="169.98" x2="572.44" y2="256.22" style="fill:none;stroke:#1e1e1c;stroke-miterlimit:10"/><line x1="405.89" y1="273.12" x2="432.1" y2="332.3" style="fill:none;stroke:#263677;stroke-miterlimit:10"/><line x1="338.26" y1="325.54" x2="376.3" y2="378.8" style="fill:none;stroke:#263677;stroke-miterlimit:10"/><line x1="273.16" y1="352.17" x2="357.28" y2="409.24" style="fill:none;stroke:#263677;stroke-miterlimit:10"/><line x1="217.36" y1="422.76" x2="319.66" y2="446.43" style="fill:none;stroke:#263677;stroke-miterlimit:10"/><line x1="126.07" y1="662.42" x2="311.2" y2="634.12" style="fill:none;stroke:#263677;stroke-miterlimit:10"/><line x1="251.18" y1="857.61" x2="466.76" y2="779.53" style="fill:none;stroke:#263677;stroke-miterlimit:10"/><path d="M439.71,922.4s57.48-59.18,82.85-60" style="fill:none;stroke:#263677;stroke-miterlimit:10"/><line x1="317.97" y1="980.74" x2="405.89" y2="946.92" style="fill:none;stroke:#263677;stroke-miterlimit:10"/><path d="M564.84,870.63s-27.06,12-27.9,45.85v26.21" style="fill:none;stroke:#263677;stroke-miterlimit:10"/><path d="M585.12,882.51s10.14,36.51,0,68.64l-20.28,68.47s-6.77,38-22,44.81c0,0-23.68,8.46-29.59,30.44l-35.51,54.34" style="fill:none;stroke:#263677;stroke-miterlimit:10"/><path d="M606.72,990.08c-12.68-53.27,19-93,19-93" style="fill:none;stroke:#263677;stroke-miterlimit:10"/><path d="M669.66,887.74s-15.22,6.76-16.07,40.58l-3.38,87.54s7.61,112.45,25.37,133.35" style="fill:none;stroke:#263677;stroke-miterlimit:10"/><path d="M640.91,887.74s10,11,12.26,30a63.85,63.85,0,0,1,.42,10.53" style="fill:none;stroke:#263677;stroke-miterlimit:10"/><path d="M657.9,914.15s26.35,76.57,22,91.22c0,0-3.13,70.77,6.53,93.72,0,0,45.3,127.45,59.8,133.49" style="fill:none;stroke:#263677;stroke-miterlimit:10"/><path d="M727.2,805.2s-6.34,60.76,12,109" style="fill:none;stroke:#263677;stroke-miterlimit:10"/><line x1="761.18" y1="733.23" x2="842.83" y2="800.46" style="fill:none;stroke:#263677;stroke-miterlimit:10"/><path d="M789.56,594.36s249.8-.86,293.65,21.93" style="fill:none;stroke:#263677;stroke-miterlimit:10"/><line x1="786.55" y1="576.3" x2="915.1" y2="509.76" style="fill:none;stroke:#263677;stroke-miterlimit:10"/><line x1="744.85" y1="543.03" x2="848.46" y2="505.79" style="fill:none;stroke:#263677;stroke-miterlimit:10"/><path d="M691.53,464.79l26.66-24.35s-4.3-25.8,46.86-44.28" style="fill:none;stroke:#263677;stroke-miterlimit:10"/><line x1="704.86" y1="476.61" x2="718.19" y2="440.44" style="fill:none;stroke:#263677;stroke-miterlimit:10"/><path d="M619.73,461.08l-4.3-39.56s-3-15.91,4.3-46,13.33-35.69,13.33-35.69" style="fill:none;stroke:#263677;stroke-miterlimit:10"/><path d="M579.32,363.05s3.87,57.46,2.15,67.42" style="fill:none;stroke:#263677;stroke-miterlimit:10"/><path d="M446,380.7l31.38,57.59s20.21,33.54,37,43.85" style="fill:none;stroke:#263677;stroke-miterlimit:10"/><line x1="385.41" y1="388.42" x2="471.83" y2="472.69" style="fill:none;stroke:#1e1e1c;stroke-miterlimit:10"/><path d="M331.39,455.49,422.84,489s32.25,7.74,45.14,42.14" style="fill:none;stroke:#263677;stroke-miterlimit:10"/><line x1="451.29" y1="627.43" x2="369.82" y2="634.12" style="fill:none;stroke:#263677;stroke-miterlimit:10"/><line x1="437.43" y1="662.42" x2="385.41" y2="632.84" style="fill:none;stroke:#263677;stroke-miterlimit:10"/><path d="M343.33,647.63s49.49,9.08,59.25,18.84,26,14.63,26,14.63" style="fill:none;stroke:#263677;stroke-miterlimit:10"/><path d="M376.3,695s51.37-7.66,61.13,7.67" style="fill:none;stroke:#263677;stroke-miterlimit:10"/><line x1="836.46" y1="215.99" x2="820.42" y2="324.49" style="fill:none;stroke:#263677;stroke-miterlimit:10"/><line x1="939.61" y1="266.76" x2="839.66" y2="339.83" style="fill:none;stroke:#263677;stroke-miterlimit:10"/><path d="M744.84,569.14s-8,8.91-5.61,51.23l3.48,30.31s8.35,12.57-.56,18.7c0,0-11.69,39-.55,59.58s-2.37,28.4-2.37,28.4,5.71,29.52-18.24,32.86a41.08,41.08,0,0,1,4.39,18.5c0,1,0,2.09-.12,3.14l-.66,8.57s-56.18,4.42-69.3,28.66-39.08,18.82-39.08,18.82-14.83-4.85-13.4-17.11l-48.38-14.26-15.44-4-19.92,1s-8,2.49-10-8.47-2.91-9.5-16.47-11.34a14.59,14.59,0,0,1-6.44-12.88c.5-8.71-5-10.63-5-10.63s-20-8.35-3.38-13.36c0,0,7.48-10.59-1.61-28.41s-24.85-31.74-24.85-31.74a8.2,8.2,0,0,1,4.07-8.91c5.57-3.34-8.35-9.89-8.35-9.89s14.48-11.23-2.78-16.82V664.36s1.32-6.12,7.06-7.79V634.14s-2.46-7.61,11.39-11l23.87-28.81s7.8-6.27,0-14.07c0,0-4.45-11.13,1.11-15.59,0,0,7.24-5,8.36-13.92l2.82-26.35s3.9-9.84,10-3.71l3.34-14.91s15,26.31,17.82,0c0,0,6.68-14,12.81-7.93,0,0,10,4.71,12.8-1.54S568.42,499,568.42,499l32.86,1.11s11.14-2,18.38,5.7c0,0,9.46,9.6,17.26,0s34-6.55,38.43,0l13.36,15.46s1.67,13.56,9.47,3.16,13.36-7.61,13.36-7.61,9.42,5.57,6.66,20.6l31.21,18.38S762,561.9,744.84,569.14Z" style="fill:none;stroke:#283479;stroke-miterlimit:10"/><path d="M746.2,932.8l0,.07a97.7,97.7,0,0,1,16,19.27l93,146.45" style="fill:none;stroke:#263677;stroke-miterlimit:10"/><path d="M895.9,479h0l160.55-14.24c-15-4.52-144.35,12.12-160.55,14.24" style="fill:none;stroke:#263677;stroke-miterlimit:10"/><path d="M470.05,803.06s-21.63-9-3.66-14.47c0,0,8.1-11.46-1.74-30.75s-26.9-34.37-26.9-34.37a8.87,8.87,0,0,1,4.41-9.65c6-3.61-9.05-10.71-9.05-10.71s15.68-12.15-3-18.2V666.78s1.43-6.62,7.65-8.43V634s-2.67-8.24,12.32-11.86L475.93,591s8.44-6.79,0-15.23c0,0-4.82-12.06,1.21-16.89,0,0,7.84-5.42,9-15.07l3-28.54s4.22-10.65,10.85-4l3.62-16.14s16.28,28.48,19.29,0c0,0,7.24-15.21,13.87-8.58,0,0,10.85,5.09,13.87-1.67s13.87,2.88,13.87,2.88l35.57,1.2s12.06-2.13,19.9,6.17c0,0,10.25,10.39,18.69,0s36.78-7.09,41.6,0l14.57,16.72s1.81,14.68,10.25,3.42S719.56,507,719.56,507s10.2,6,7.21,22.31l33.8,19.9s13.65,6.63-4.94,14.47c0,0-8.63,9.65-6.07,55.47L753.33,652s9,13.61-.6,20.24c0,0-12.66,42.21-.61,64.52s-2.56,30.75-2.56,30.75,6.18,32-19.75,35.57h0a44.43,44.43,0,0,1,4.63,23.44l-.71,9.26s-60.84,4.79-75,31-42.4,20.39-42.4,20.39-16.06-5.22-14.49-18.5l-52.39-15.43-16.72-4.32L511.16,850s-8.63,2.7-10.79-9.17-3.14-10.28-17.83-12.28a15.82,15.82,0,0,1-7-13.94C476.05,805.15,470.05,803.06,470.05,803.06Z" style="fill:none;stroke:#29337d;stroke-linecap:round;stroke-linejoin:round;stroke-dasharray:1.9470843076705933,1.9470843076705933"/><path d="M577.64,499.29l4.27-82.52-1.3-31.32C579.32,359.91,567,176.31,567,176.31l66.11,163.52-5.67,10.32c-20.55,56.29-10,81.14-7.66,111,0,.26-.08,44.71-.08,44.71l-1.23-1.92A31.79,31.79,0,0,0,600,500.12Z" style="fill:url(#_6_lpi_10_)"/><path d="M533.68,500a162.24,162.24,0,0,0-19.28-17.87c-9.18-7-18-17.49-21.22-21.11-9.94-11.27-30.52-50.12-40.86-68.85a114.68,114.68,0,0,1-9.81-23.74l-7.8-27.08a137.29,137.29,0,0,0-6.43-17.68l-33.07-75.24c-5.63-25-34.8-76.12-40.83,2.7l-14,64.78A22.24,22.24,0,0,0,344,333.56l32.32,45.25,95.5,93.88,37,48,3.34-14.91h0c17.16,27.19,16,0,20.44-3.68Z" style="fill:url(#_6_lpi_10_)"/><path d="M452.68,627.32l-67.27,5.52L444,666.23s1-4.76,3-7.15a9,9,0,0,1,4.28-2.5C450.23,630.77,452.68,627.32,452.68,627.32Z" style="fill:url(#_6_lpi_10_)"/><path d="M444.23,681.15s-9.94,1.61-15.61,0c-14.77-4.18-29.28-17.07-29.28-17.07l-20.4-7.75L311.2,634.15,169.12,655.84,376.3,695s32.18-3,46.84-.13a28,28,0,0,1,14.29,7.8s7.52-3,9.58-4.79C461.55,685.08,444.23,681.15,444.23,681.15Z" style="fill:url(#_6_lpi_10_)"/><path d="M581.58,844.55l7,54.6c2.7,20.46.62,35-3.5,52l-13.51,45.57h0c-8.93,74.1,14.63,19.14,26.18,6.2l8.93-12.84-2.33-13.33c-2.79-24,0-45.75,21.31-79.71l13.45-32.2L624,868.41c-7.79-.49-20.3-3.54-21.19-17.6h0Z" style="fill:url(#_6_lpi_10_)"/><path d="M653.91,922.4l-3.7,93.46,3.87,42.92,3.19.64c7.4,4.35,11.87-4.33,13.41-9.21l2.89-18.69s6.62-31.42,5.79-41.44c-1.44-17.2-23-80.86-23-80.86Z" style="fill:url(#_6_lpi_10_)"/><path d="M689,522.88l-5-27.55A30.52,30.52,0,0,1,686,478l5.61-13.16,16-14.56,10.71-9.79L699.64,522.6l-2.35,2.95C691.19,533.45,689,522.88,689,522.88Z" style="fill:url(#_6_lpi_10_)"/><path d="M736.33,711.59,802,766.84l40.83,33.62,64.24,69.06,118.85,91.55L823.74,857.61,721,790.23l6.57-1c6.36-5.68,9.74-9.26,11.29-15.8l.38-16c12.68-10.17,4.72-22.67.27-33.25Z" style="fill:url(#_6_lpi_10_)"/><path d="M744.84,569.15l40.46,6.94a3.7,3.7,0,0,0,2.36-.37L872.24,532l43.93-22.8c1-.49,7.64-2.51,7.91-3.61h0c3.11-12.87,22.43-40.76-47.75-22.21l-19,13L741.62,544.68a3.74,3.74,0,0,0-.83,6.6l2.33,1.6a3.05,3.05,0,0,0,.61.34c6.14,2.7,19.33,6.77,1.12,15.93Z" style="fill:url(#_6_lpi_10_)"/><path d="M539,832.57l-16.44,29.81s-13.68,2.23-30.51,14.33l-38.9,32.57-22.9,30.87s-3.44,17.65-24.36,6.74l-8.42,3.26L296.34,989.64,373,914.15a80.88,80.88,0,0,1,16.76-12.68L464,859.15a33.69,33.69,0,0,1,5.71-2.59l45.4-23Z" style="fill:url(#_6_lpi_10_)"/></g></g></svg>